<svg xmlns="http://www.w3.org/2000/svg" style="display: none;">
    <symbol id="facebook" viewBox="0 0 24 24">
        <path d="M9 8H6v4h3v12h5V12h3.642l.358-4H14V6.667C14 5.926 14.192 5 15.667 5H18V1h-3.333C11.582 1 9 3.582 9 6.667V8z"/>
    </symbol>
    <symbol id="youtube" viewBox="0 0 24 24">
        <path d="M21.582 6.186a2.515 2.515 0 0 0-1.768-1.768C18.254 4 12 4 12 4s-6.254 0-7.814.418a2.515 2.515 0 0 0-1.768 1.768C2 7.746 2 12 2 12s0 4.254.418 5.814a2.515 2.515 0 0 0 1.768 1.768C5.746 20 12 20 12 20s6.254 0 7.814-.418a2.515 2.515 0 0 0 1.768-1.768C22 16.254 22 12 22 12s0-4.254-.418-5.814zM10 15.5V8.5l6 3.5-6 3.5z"/>
    </symbol>
    <symbol id="twitter" viewBox="0 0 24 24">
        <path d="M18.244 2.25h3.308l-7.227 8.26 8.502 11.24H16.17l-5.214-6.817L4.99 21.75H1.68l7.73-8.835L1.254 2.25H8.08l4.713 6.231zm-1.161 17.52h1.833L7.084 4.126H5.117z"/>
    </symbol>
    <symbol id="instagram" viewBox="0 0 24 24">
        <path d="M12 2.163c3.204 0 3.584.012 4.85.07 1.366.062 2.633.33 3.608 1.304.975.975 1.242 2.242 1.304 3.608.058 1.266.07 1.646.07 4.85s-.012 3.584-.07 4.85c-.062 1.366-.33 2.633-1.304 3.608-.975.975-2.242 1.242-3.608 1.304-1.266.058-1.646.07-4.85.07s-3.584-.012-4.85-.07c-1.366-.062-2.633-.33-3.608-1.304-.975-.975-1.242-2.242-1.304-3.608-.058-1.266-.07-1.646-.07-4.85s.012-3.584.07-4.85c.062-1.366.33-2.633 1.304-3.608.975-.975 2.242-1.242 3.608-1.304 1.266-.058 1.646-.07 4.85-.07zM12 0C8.741 0 8.332.014 7.052.072c-1.95.089-3.663.567-5.038 1.942C.639 3.389.161 5.102.072 7.052.014 8.332 0 8.741 0 12s.014 3.668.072 4.948c.089 1.95.567 3.663 1.942 5.038 1.375 1.375 3.088 1.853 5.038 1.942 1.28.058 1.689.072 4.948.072s3.668-.014 4.948-.072c1.95-.089 3.663-.567 5.038-1.942 1.375-1.375 1.853-3.088 1.942-5.038.058-1.28.072-1.689.072-4.948s-.014-3.668-.072-4.948c-.089-1.95-.567-3.663-1.942-5.038C20.611.639 18.898.161 16.948.072 15.668.014 15.259 0 12 0zm0 5.838a6.162 6.162 0 1 0 0 12.324 6.162 6.162 0 0 0 0-12.324zM12 16a4 4 0 1 1 0-8 4 4 0 0 1 0 8zm4.965-10.405a1.44 1.44 0 1 1-2.88 0 1.44 1.44 0 0 1 2.88 0z"/>
    </symbol>
</svg>